%TF.GenerationSoftware,KiCad,Pcbnew,(5.99.0-12255-gad1ee958b0)*%
%TF.CreationDate,2022-02-21T16:33:45+02:00*%
%TF.ProjectId,esp32-ledstrip-driver,65737033-322d-46c6-9564-73747269702d,rev?*%
%TF.SameCoordinates,Original*%
%TF.FileFunction,Legend,Top*%
%TF.FilePolarity,Positive*%
%FSLAX46Y46*%
G04 Gerber Fmt 4.6, Leading zero omitted, Abs format (unit mm)*
G04 Created by KiCad (PCBNEW (5.99.0-12255-gad1ee958b0)) date 2022-02-21 16:33:45*
%MOMM*%
%LPD*%
G01*
G04 APERTURE LIST*
%ADD10C,0.120000*%
%ADD11C,0.150000*%
%ADD12C,2.000000*%
G04 APERTURE END LIST*
D10*
%TO.C,R22*%
X153962742Y-96122500D02*
X154437258Y-96122500D01*
X153962742Y-95077500D02*
X154437258Y-95077500D01*
%TO.C,R13*%
X142822500Y-80562742D02*
X142822500Y-81037258D01*
X141777500Y-80562742D02*
X141777500Y-81037258D01*
%TO.C,D5*%
X148860000Y-96100000D02*
X148860000Y-95450000D01*
X145740000Y-96100000D02*
X145740000Y-95450000D01*
X148860000Y-96100000D02*
X148860000Y-96750000D01*
X145740000Y-96100000D02*
X145740000Y-97775000D01*
%TO.C,R12*%
X144277500Y-80562742D02*
X144277500Y-81037258D01*
X145322500Y-80562742D02*
X145322500Y-81037258D01*
%TO.C,U4*%
X159435000Y-86540000D02*
X159435000Y-84850000D01*
X152290000Y-89300000D02*
X152290000Y-86540000D01*
X159710000Y-89300000D02*
X159710000Y-86540000D01*
X159710000Y-92060000D02*
X159435000Y-92060000D01*
X152290000Y-89300000D02*
X152290000Y-92060000D01*
X152290000Y-86540000D02*
X152565000Y-86540000D01*
X152290000Y-92060000D02*
X152565000Y-92060000D01*
X159710000Y-89300000D02*
X159710000Y-92060000D01*
X159710000Y-86540000D02*
X159435000Y-86540000D01*
%TO.C,Q6*%
X125430000Y-71750000D02*
X123930000Y-71750000D01*
X123930000Y-71750000D02*
X123930000Y-72020000D01*
X123930000Y-72020000D02*
X121100000Y-72020000D01*
X125430000Y-78650000D02*
X123930000Y-78650000D01*
X123930000Y-78380000D02*
X122830000Y-78380000D01*
X123930000Y-78650000D02*
X123930000Y-78380000D01*
%TO.C,R26*%
X136562742Y-105777500D02*
X137037258Y-105777500D01*
X136562742Y-106822500D02*
X137037258Y-106822500D01*
%TO.C,R8*%
X123477500Y-80937258D02*
X123477500Y-80462742D01*
X124522500Y-80937258D02*
X124522500Y-80462742D01*
%TO.C,R6*%
X147022500Y-81037258D02*
X147022500Y-80562742D01*
X145977500Y-81037258D02*
X145977500Y-80562742D01*
%TO.C,C2*%
X73140000Y-106063748D02*
X73140000Y-107486252D01*
X75860000Y-106063748D02*
X75860000Y-107486252D01*
%TO.C,Q1*%
X89370000Y-78450000D02*
X89370000Y-78180000D01*
X89370000Y-71820000D02*
X90470000Y-71820000D01*
X89370000Y-71550000D02*
X89370000Y-71820000D01*
X87870000Y-78450000D02*
X89370000Y-78450000D01*
X89370000Y-78180000D02*
X92200000Y-78180000D01*
X87870000Y-71550000D02*
X89370000Y-71550000D01*
%TO.C,R3*%
X90822500Y-80437258D02*
X90822500Y-79962742D01*
X89777500Y-80437258D02*
X89777500Y-79962742D01*
%TO.C,P4*%
X128710000Y-52890000D02*
X130210000Y-52890000D01*
X143700000Y-51390000D02*
X143950000Y-52890000D01*
X145450000Y-52890000D02*
X145700000Y-51390000D01*
X148620000Y-54690000D02*
X125540000Y-54690000D01*
X148620000Y-52890000D02*
X148620000Y-54690000D01*
X125540000Y-63610000D02*
X148620000Y-63610000D01*
X125540000Y-54690000D02*
X125540000Y-52890000D01*
X144400000Y-64410000D02*
X144700000Y-63810000D01*
X125540000Y-52890000D02*
X148620000Y-52890000D01*
X145700000Y-51390000D02*
X143700000Y-51390000D01*
X136330000Y-52890000D02*
X137830000Y-52890000D01*
X130210000Y-52890000D02*
X130460000Y-51390000D01*
X136080000Y-51390000D02*
X136330000Y-52890000D01*
X137830000Y-52890000D02*
X138080000Y-51390000D01*
X148620000Y-51390000D02*
X125540000Y-51390000D01*
X143950000Y-52890000D02*
X145450000Y-52890000D01*
X138080000Y-51390000D02*
X136080000Y-51390000D01*
X145000000Y-64410000D02*
X144400000Y-64410000D01*
X125540000Y-51390000D02*
X125540000Y-63610000D01*
X144700000Y-63810000D02*
X145000000Y-64410000D01*
X148620000Y-63610000D02*
X148620000Y-51390000D01*
X130460000Y-51390000D02*
X128460000Y-51390000D01*
X128460000Y-51390000D02*
X128710000Y-52890000D01*
%TO.C,R10*%
X98577500Y-80537258D02*
X98577500Y-80062742D01*
X99622500Y-80537258D02*
X99622500Y-80062742D01*
%TO.C,R25*%
X148837258Y-93822500D02*
X148362742Y-93822500D01*
X148837258Y-92777500D02*
X148362742Y-92777500D01*
%TO.C,R19*%
X98637742Y-116452500D02*
X99112258Y-116452500D01*
X98637742Y-117497500D02*
X99112258Y-117497500D01*
%TO.C,Q7*%
X116870000Y-71920000D02*
X117970000Y-71920000D01*
X115370000Y-78550000D02*
X116870000Y-78550000D01*
X116870000Y-71650000D02*
X116870000Y-71920000D01*
X116870000Y-78280000D02*
X119700000Y-78280000D01*
X116870000Y-78550000D02*
X116870000Y-78280000D01*
X115370000Y-71650000D02*
X116870000Y-71650000D01*
%TO.C,C3*%
X167210000Y-117134420D02*
X167210000Y-117415580D01*
X166190000Y-117134420D02*
X166190000Y-117415580D01*
%TO.C,P3*%
X154630000Y-52567500D02*
X156130000Y-52567500D01*
X174540000Y-63287500D02*
X174540000Y-51067500D01*
X174540000Y-51067500D02*
X151460000Y-51067500D01*
X162250000Y-52567500D02*
X163750000Y-52567500D01*
X170320000Y-64087500D02*
X170620000Y-63487500D01*
X174540000Y-54367500D02*
X151460000Y-54367500D01*
X169620000Y-51067500D02*
X169870000Y-52567500D01*
X156130000Y-52567500D02*
X156380000Y-51067500D01*
X154380000Y-51067500D02*
X154630000Y-52567500D01*
X170620000Y-63487500D02*
X170920000Y-64087500D01*
X151460000Y-63287500D02*
X174540000Y-63287500D01*
X151460000Y-51067500D02*
X151460000Y-63287500D01*
X171370000Y-52567500D02*
X171620000Y-51067500D01*
X170920000Y-64087500D02*
X170320000Y-64087500D01*
X156380000Y-51067500D02*
X154380000Y-51067500D01*
X162000000Y-51067500D02*
X162250000Y-52567500D01*
X151460000Y-54367500D02*
X151460000Y-52567500D01*
X151460000Y-52567500D02*
X174540000Y-52567500D01*
X164000000Y-51067500D02*
X162000000Y-51067500D01*
X171620000Y-51067500D02*
X169620000Y-51067500D01*
X174540000Y-52567500D02*
X174540000Y-54367500D01*
X169870000Y-52567500D02*
X171370000Y-52567500D01*
X163750000Y-52567500D02*
X164000000Y-51067500D01*
%TO.C,Q8*%
X99830000Y-71650000D02*
X99830000Y-71920000D01*
X101330000Y-71650000D02*
X99830000Y-71650000D01*
X99830000Y-71920000D02*
X97000000Y-71920000D01*
X101330000Y-78550000D02*
X99830000Y-78550000D01*
X99830000Y-78550000D02*
X99830000Y-78280000D01*
X99830000Y-78280000D02*
X98730000Y-78280000D01*
%TO.C,R9*%
X117177500Y-80912258D02*
X117177500Y-80437742D01*
X118222500Y-80912258D02*
X118222500Y-80437742D01*
%TO.C,R7*%
X141122500Y-81037258D02*
X141122500Y-80562742D01*
X140077500Y-81037258D02*
X140077500Y-80562742D01*
%TO.C,D3*%
X150465000Y-94060000D02*
X151935000Y-94060000D01*
X151935000Y-94060000D02*
X151935000Y-91600000D01*
X150465000Y-91600000D02*
X150465000Y-94060000D01*
%TO.C,P6*%
X91660000Y-136832500D02*
X114740000Y-136832500D01*
X95880000Y-123812500D02*
X95580000Y-124412500D01*
X91660000Y-133532500D02*
X114740000Y-133532500D01*
X96330000Y-135332500D02*
X94830000Y-135332500D01*
X95580000Y-124412500D02*
X95280000Y-123812500D01*
X111570000Y-135332500D02*
X110070000Y-135332500D01*
X114740000Y-124612500D02*
X91660000Y-124612500D01*
X94830000Y-135332500D02*
X94580000Y-136832500D01*
X111820000Y-136832500D02*
X111570000Y-135332500D01*
X91660000Y-124612500D02*
X91660000Y-136832500D01*
X96580000Y-136832500D02*
X96330000Y-135332500D01*
X95280000Y-123812500D02*
X95880000Y-123812500D01*
X91660000Y-135332500D02*
X91660000Y-133532500D01*
X114740000Y-133532500D02*
X114740000Y-135332500D01*
X110070000Y-135332500D02*
X109820000Y-136832500D01*
X114740000Y-136832500D02*
X114740000Y-124612500D01*
X114740000Y-135332500D02*
X91660000Y-135332500D01*
X102450000Y-135332500D02*
X102200000Y-136832500D01*
X109820000Y-136832500D02*
X111820000Y-136832500D01*
X104200000Y-136832500D02*
X103950000Y-135332500D01*
X102200000Y-136832500D02*
X104200000Y-136832500D01*
X103950000Y-135332500D02*
X102450000Y-135332500D01*
X94580000Y-136832500D02*
X96580000Y-136832500D01*
%TO.C,R11*%
X168822500Y-80962742D02*
X168822500Y-81437258D01*
X167777500Y-80962742D02*
X167777500Y-81437258D01*
%TO.C,U1*%
X145880000Y-100450000D02*
X145880000Y-99670000D01*
X164120000Y-125415000D02*
X164120000Y-118995000D01*
X145880000Y-99670000D02*
X146880000Y-99670000D01*
X164120000Y-118995000D02*
X164500000Y-118995000D01*
X164120000Y-99670000D02*
X163120000Y-99670000D01*
X145880000Y-125415000D02*
X145880000Y-118995000D01*
X164120000Y-100450000D02*
X164120000Y-99670000D01*
X164120000Y-125415000D02*
X145880000Y-125415000D01*
%TO.C,R14*%
X121777500Y-80462742D02*
X121777500Y-80937258D01*
X122822500Y-80462742D02*
X122822500Y-80937258D01*
%TO.C,Q2*%
X72630000Y-78450000D02*
X72630000Y-78180000D01*
X74130000Y-71550000D02*
X72630000Y-71550000D01*
X72630000Y-78180000D02*
X71530000Y-78180000D01*
X72630000Y-71550000D02*
X72630000Y-71820000D01*
X72630000Y-71820000D02*
X69800000Y-71820000D01*
X74130000Y-78450000D02*
X72630000Y-78450000D01*
%TO.C,D2*%
X159665000Y-83360000D02*
X161135000Y-83360000D01*
X159665000Y-80900000D02*
X159665000Y-83360000D01*
X161135000Y-83360000D02*
X161135000Y-80900000D01*
%TO.C,R1*%
X92522500Y-79937742D02*
X92522500Y-80412258D01*
X91477500Y-79937742D02*
X91477500Y-80412258D01*
%TO.C,R18*%
X98622500Y-114337742D02*
X98622500Y-114812258D01*
X97577500Y-114337742D02*
X97577500Y-114812258D01*
%TO.C,R23*%
X154437258Y-97722500D02*
X153962742Y-97722500D01*
X154437258Y-96677500D02*
X153962742Y-96677500D01*
D11*
%TO.C,J1*%
X167725000Y-91700000D02*
X167725000Y-90700000D01*
X163925000Y-93500000D02*
X163325000Y-93500000D01*
X167425000Y-85700000D02*
X166825000Y-85700000D01*
X167425000Y-93500000D02*
X167425000Y-85700000D01*
X163325000Y-93500000D02*
X163325000Y-85700000D01*
X163325000Y-85700000D02*
X163925000Y-85700000D01*
X166825000Y-93500000D02*
X167425000Y-93500000D01*
D10*
%TO.C,R5*%
X167222500Y-81437258D02*
X167222500Y-80962742D01*
X166177500Y-81437258D02*
X166177500Y-80962742D01*
%TO.C,Q3*%
X165970000Y-79050000D02*
X165970000Y-78780000D01*
X165970000Y-78780000D02*
X168800000Y-78780000D01*
X164470000Y-72150000D02*
X165970000Y-72150000D01*
X165970000Y-72150000D02*
X165970000Y-72420000D01*
X164470000Y-79050000D02*
X165970000Y-79050000D01*
X165970000Y-72420000D02*
X167070000Y-72420000D01*
%TO.C,C1*%
X86960000Y-106186252D02*
X86960000Y-104763748D01*
X84240000Y-106186252D02*
X84240000Y-104763748D01*
%TO.C,R2*%
X72322500Y-80662742D02*
X72322500Y-81137258D01*
X71277500Y-80662742D02*
X71277500Y-81137258D01*
%TO.C,C4*%
X103010000Y-108915580D02*
X103010000Y-108634420D01*
X101990000Y-108915580D02*
X101990000Y-108634420D01*
%TO.C,D6*%
X141600000Y-105340000D02*
X138740000Y-105340000D01*
X138740000Y-105340000D02*
X138740000Y-107260000D01*
X138740000Y-107260000D02*
X141600000Y-107260000D01*
%TO.C,Y1*%
X156300000Y-79250000D02*
X150900000Y-79250000D01*
X156300000Y-83750000D02*
X156300000Y-79250000D01*
%TO.C,Q5*%
X139270000Y-71950000D02*
X140770000Y-71950000D01*
X140770000Y-78850000D02*
X140770000Y-78580000D01*
X140770000Y-72220000D02*
X141870000Y-72220000D01*
X140770000Y-71950000D02*
X140770000Y-72220000D01*
X139270000Y-78850000D02*
X140770000Y-78850000D01*
X140770000Y-78580000D02*
X143600000Y-78580000D01*
%TO.C,Q10*%
X150800000Y-97860000D02*
X150150000Y-97860000D01*
X150800000Y-94740000D02*
X151450000Y-94740000D01*
X150800000Y-97860000D02*
X152475000Y-97860000D01*
X150800000Y-94740000D02*
X150150000Y-94740000D01*
%TO.C,R17*%
X99177500Y-114337742D02*
X99177500Y-114812258D01*
X100222500Y-114337742D02*
X100222500Y-114812258D01*
%TO.C,Q9*%
X155740000Y-96100000D02*
X155740000Y-96750000D01*
X158860000Y-96100000D02*
X158860000Y-96750000D01*
X155740000Y-96100000D02*
X155740000Y-95450000D01*
X158860000Y-96100000D02*
X158860000Y-94425000D01*
%TO.C,C5*%
X157810000Y-81865580D02*
X157810000Y-81584420D01*
X156790000Y-81865580D02*
X156790000Y-81584420D01*
%TO.C,F1*%
X93200000Y-109680000D02*
X93160000Y-109970000D01*
X91880000Y-109250000D02*
X92020000Y-109130000D01*
X92020000Y-109130000D02*
X92180000Y-109040000D01*
X93120000Y-109390000D02*
X93200000Y-109680000D01*
X93080000Y-110150000D02*
X92930000Y-110280000D01*
X92430000Y-108990000D02*
X92690000Y-109020000D01*
X92180000Y-109040000D02*
X92430000Y-108990000D01*
X93160000Y-109970000D02*
X93080000Y-110150000D01*
X92690000Y-109020000D02*
X92950000Y-109170000D01*
X92950000Y-109170000D02*
X93120000Y-109390000D01*
X93850000Y-113100000D02*
G75*
G03*
X93850000Y-113100000I-4750000J0D01*
G01*
%TO.C,U3*%
X101460000Y-109175000D02*
X101460000Y-105725000D01*
X96340000Y-109175000D02*
X96340000Y-107225000D01*
X96340000Y-109175000D02*
X96340000Y-111125000D01*
X101460000Y-109175000D02*
X101460000Y-111125000D01*
%TO.C,L1*%
X83300000Y-108975000D02*
X76700000Y-108975000D01*
X76700000Y-104275000D02*
X76700000Y-102575000D01*
X76700000Y-102575000D02*
X83300000Y-102575000D01*
X83300000Y-107275000D02*
X83300000Y-108975000D01*
X76700000Y-108975000D02*
X76700000Y-107275000D01*
X83300000Y-102575000D02*
X83300000Y-104275000D01*
%TO.C,R15*%
X118777500Y-80462742D02*
X118777500Y-80937258D01*
X119822500Y-80462742D02*
X119822500Y-80937258D01*
%TO.C,P2*%
X66160000Y-54567500D02*
X66160000Y-52767500D01*
X66160000Y-63487500D02*
X89240000Y-63487500D01*
X78450000Y-52767500D02*
X78700000Y-51267500D01*
X89240000Y-52767500D02*
X89240000Y-54567500D01*
X76700000Y-51267500D02*
X76950000Y-52767500D01*
X85320000Y-63687500D02*
X85620000Y-64287500D01*
X66160000Y-51267500D02*
X66160000Y-63487500D01*
X89240000Y-54567500D02*
X66160000Y-54567500D01*
X69330000Y-52767500D02*
X70830000Y-52767500D01*
X66160000Y-52767500D02*
X89240000Y-52767500D01*
X76950000Y-52767500D02*
X78450000Y-52767500D01*
X85620000Y-64287500D02*
X85020000Y-64287500D01*
X70830000Y-52767500D02*
X71080000Y-51267500D01*
X89240000Y-51267500D02*
X66160000Y-51267500D01*
X84570000Y-52767500D02*
X86070000Y-52767500D01*
X78700000Y-51267500D02*
X76700000Y-51267500D01*
X71080000Y-51267500D02*
X69080000Y-51267500D01*
X84320000Y-51267500D02*
X84570000Y-52767500D01*
X86320000Y-51267500D02*
X84320000Y-51267500D01*
X69080000Y-51267500D02*
X69330000Y-52767500D01*
X86070000Y-52767500D02*
X86320000Y-51267500D01*
X89240000Y-63487500D02*
X89240000Y-51267500D01*
X85020000Y-64287500D02*
X85320000Y-63687500D01*
%TO.C,D4*%
X162160000Y-96765000D02*
X159700000Y-96765000D01*
X162160000Y-98235000D02*
X162160000Y-96765000D01*
X159700000Y-98235000D02*
X162160000Y-98235000D01*
%TO.C,R21*%
X160277500Y-88037258D02*
X160277500Y-87562742D01*
X161322500Y-88037258D02*
X161322500Y-87562742D01*
%TO.C,C8*%
X161710000Y-94815580D02*
X161710000Y-94534420D01*
X160690000Y-94815580D02*
X160690000Y-94534420D01*
%TO.C,R4*%
X69577500Y-81137258D02*
X69577500Y-80662742D01*
X70622500Y-81137258D02*
X70622500Y-80662742D01*
%TO.C,P5*%
X109270000Y-52867500D02*
X110770000Y-52867500D01*
X109020000Y-51367500D02*
X109270000Y-52867500D01*
X103150000Y-52867500D02*
X103400000Y-51367500D01*
X110020000Y-63787500D02*
X110320000Y-64387500D01*
X109720000Y-64387500D02*
X110020000Y-63787500D01*
X90860000Y-54667500D02*
X90860000Y-52867500D01*
X110770000Y-52867500D02*
X111020000Y-51367500D01*
X90860000Y-52867500D02*
X113940000Y-52867500D01*
X113940000Y-63587500D02*
X113940000Y-51367500D01*
X95530000Y-52867500D02*
X95780000Y-51367500D01*
X110320000Y-64387500D02*
X109720000Y-64387500D01*
X101650000Y-52867500D02*
X103150000Y-52867500D01*
X113940000Y-52867500D02*
X113940000Y-54667500D01*
X94030000Y-52867500D02*
X95530000Y-52867500D01*
X113940000Y-51367500D02*
X90860000Y-51367500D01*
X95780000Y-51367500D02*
X93780000Y-51367500D01*
X90860000Y-51367500D02*
X90860000Y-63587500D01*
X101400000Y-51367500D02*
X101650000Y-52867500D01*
X93780000Y-51367500D02*
X94030000Y-52867500D01*
X113940000Y-54667500D02*
X90860000Y-54667500D01*
X90860000Y-63587500D02*
X113940000Y-63587500D01*
X111020000Y-51367500D02*
X109020000Y-51367500D01*
X103400000Y-51367500D02*
X101400000Y-51367500D01*
D11*
%TO.C,U2*%
X79750000Y-109525000D02*
X68250000Y-109525000D01*
X68250000Y-109525000D02*
X68250000Y-118025000D01*
X79750000Y-118025000D02*
X79750000Y-109525000D01*
X68250000Y-118025000D02*
X79750000Y-118025000D01*
D10*
%TO.C,R16*%
X96977500Y-80062742D02*
X96977500Y-80537258D01*
X98022500Y-80062742D02*
X98022500Y-80537258D01*
%TO.C,C6*%
X150210000Y-81459420D02*
X150210000Y-81740580D01*
X149190000Y-81459420D02*
X149190000Y-81740580D01*
%TO.C,R20*%
X159422500Y-81862258D02*
X159422500Y-81387742D01*
X158377500Y-81862258D02*
X158377500Y-81387742D01*
%TO.C,Q4*%
X149130000Y-72120000D02*
X146300000Y-72120000D01*
X149130000Y-78480000D02*
X148030000Y-78480000D01*
X150630000Y-78750000D02*
X149130000Y-78750000D01*
X150630000Y-71850000D02*
X149130000Y-71850000D01*
X149130000Y-78750000D02*
X149130000Y-78480000D01*
X149130000Y-71850000D02*
X149130000Y-72120000D01*
%TO.C,D1*%
X83650000Y-111175000D02*
X83650000Y-116575000D01*
X83650000Y-111175000D02*
X80350000Y-111175000D01*
X80350000Y-111175000D02*
X80350000Y-116575000D01*
%TO.C,P1*%
X86020000Y-137032500D02*
X85770000Y-135532500D01*
X65860000Y-133732500D02*
X88940000Y-133732500D01*
X70080000Y-124012500D02*
X69780000Y-124612500D01*
X76650000Y-135532500D02*
X76400000Y-137032500D01*
X65860000Y-124812500D02*
X65860000Y-137032500D01*
X70530000Y-135532500D02*
X69030000Y-135532500D01*
X70780000Y-137032500D02*
X70530000Y-135532500D01*
X88940000Y-133732500D02*
X88940000Y-135532500D01*
X85770000Y-135532500D02*
X84270000Y-135532500D01*
X88940000Y-137032500D02*
X88940000Y-124812500D01*
X78400000Y-137032500D02*
X78150000Y-135532500D01*
X88940000Y-135532500D02*
X65860000Y-135532500D01*
X84020000Y-137032500D02*
X86020000Y-137032500D01*
X69030000Y-135532500D02*
X68780000Y-137032500D01*
X88940000Y-124812500D02*
X65860000Y-124812500D01*
X84270000Y-135532500D02*
X84020000Y-137032500D01*
X69480000Y-124012500D02*
X70080000Y-124012500D01*
X76400000Y-137032500D02*
X78400000Y-137032500D01*
X65860000Y-135532500D02*
X65860000Y-133732500D01*
X69780000Y-124612500D02*
X69480000Y-124012500D01*
X65860000Y-137032500D02*
X88940000Y-137032500D01*
X68780000Y-137032500D02*
X70780000Y-137032500D01*
X78150000Y-135532500D02*
X76650000Y-135532500D01*
%TO.C,C7*%
X150490000Y-85659420D02*
X150490000Y-85940580D01*
X151510000Y-85659420D02*
X151510000Y-85940580D01*
%TO.C,R24*%
X162522500Y-81362742D02*
X162522500Y-81837258D01*
X161477500Y-81362742D02*
X161477500Y-81837258D01*
%TD*%
D12*
%TO.C,U2*%
X76540000Y-111525000D03*
X74000000Y-111525000D03*
X71460000Y-111525000D03*
%TD*%
M02*
