M48
; DRILL file {KiCad (5.99.0-12255-gad1ee958b0)} date Mon Feb 21 16:33:20 2022
; FORMAT={-:-/ absolute / metric / decimal}
; #@! TF.CreationDate,2022-02-21T16:33:20+02:00
; #@! TF.GenerationSoftware,Kicad,Pcbnew,(5.99.0-12255-gad1ee958b0)
; #@! TF.FileFunction,MixedPlating,1,2
FMAT,2
METRIC
; #@! TA.AperFunction,Plated,PTH,ViaDrill
T1C0.400
; #@! TA.AperFunction,Plated,PTH,ComponentDrill
T2C0.700
; #@! TA.AperFunction,Plated,PTH,ComponentDrill
T3C1.000
; #@! TA.AperFunction,Plated,PTH,ComponentDrill
T4C1.150
; #@! TA.AperFunction,Plated,PTH,ComponentDrill
T5C1.400
; #@! TA.AperFunction,Plated,PTH,ComponentDrill
T6C2.000
%
G90
G05
T1
X61.0Y-63.0
X61.0Y-95.0
X62.5Y-57.5
X62.5Y-60.0
X62.5Y-97.5
X62.5Y-100.0
X62.5Y-102.5
X62.5Y-105.0
X62.5Y-107.5
X62.5Y-110.0
X62.5Y-112.5
X62.5Y-115.0
X62.5Y-117.5
X62.5Y-120.0
X62.5Y-122.5
X62.5Y-125.0
X62.5Y-127.5
X62.5Y-130.0
X62.5Y-132.5
X64.0Y-115.0
X65.0Y-57.5
X65.0Y-65.0
X65.0Y-67.5
X65.0Y-70.0
X65.0Y-72.5
X65.0Y-75.0
X65.0Y-77.5
X65.0Y-80.0
X65.0Y-82.5
X65.0Y-85.0
X65.0Y-87.5
X65.0Y-90.0
X65.0Y-92.5
X65.0Y-104.0
X65.0Y-132.5
X66.0Y-111.0
X66.0Y-121.0
X67.0Y-125.0
X67.0Y-126.0
X67.0Y-127.0
X67.0Y-128.0
X67.0Y-129.0
X67.5Y-132.5
X68.0Y-56.0
X68.0Y-63.0
X68.0Y-96.0
X68.0Y-121.0
X68.0Y-124.0
X68.0Y-130.0
X69.0Y-85.0
X69.0Y-106.0
X69.0Y-109.0
X69.0Y-114.0
X69.0Y-124.0
X69.0Y-130.0
X70.0Y-89.0
X70.0Y-101.0
X70.0Y-124.0
X70.0Y-130.0
X70.0Y-132.5
X70.9Y-75.0
X71.0Y-56.0
X71.0Y-118.0
X71.0Y-124.0
X71.0Y-130.0
X72.0Y-70.0
X72.0Y-124.0
X72.0Y-130.0
X72.5Y-132.5
X73.0Y-60.0
X73.0Y-66.0
X73.0Y-93.0
X73.0Y-97.0
X73.0Y-124.0
X73.0Y-125.0
X73.0Y-126.0
X73.0Y-128.0
X73.0Y-129.0
X74.0Y-56.0
X74.0Y-124.0
X75.0Y-62.0
X75.0Y-80.0
X75.0Y-83.0
X75.0Y-124.0
X75.0Y-125.0
X75.0Y-126.0
X75.0Y-128.0
X75.0Y-129.0
X75.0Y-132.5
X76.0Y-80.0
X76.0Y-121.0
X76.0Y-124.0
X76.0Y-130.0
X77.0Y-56.0
X77.0Y-80.0
X77.0Y-88.0
X77.0Y-130.0
X77.5Y-132.5
X78.0Y-68.0
X78.0Y-80.0
X78.0Y-130.0
X79.0Y-80.0
X79.0Y-92.0
X79.0Y-124.0
X79.0Y-130.0
X80.0Y-56.0
X80.0Y-83.0
X80.0Y-125.0
X80.0Y-126.0
X80.0Y-127.0
X80.0Y-128.0
X80.0Y-129.0
X80.0Y-132.5
X81.0Y-70.0
X81.0Y-87.0
X81.0Y-96.0
X82.0Y-62.0
X82.0Y-66.0
X82.0Y-80.0
X82.0Y-122.0
X82.0Y-130.0
X82.5Y-132.5
X83.0Y-56.0
X83.0Y-80.0
X83.0Y-91.0
X83.0Y-127.0
X84.0Y-80.0
X84.0Y-83.0
X84.0Y-102.0
X84.7Y-100.7
X85.0Y-80.0
X85.0Y-88.0
X85.0Y-132.5
X86.0Y-56.0
X86.0Y-70.0
X86.0Y-80.0
X86.0Y-96.0
X86.0Y-102.0
X87.0Y-80.0
X87.0Y-93.0
X87.0Y-130.0
X87.5Y-132.5
X88.0Y-83.0
X88.0Y-97.0
X88.0Y-122.0
X88.0Y-127.0
X89.0Y-61.0
X89.0Y-65.0
X89.0Y-89.0
X89.6Y-100.7
X90.0Y-56.0
X90.0Y-120.0
X90.0Y-130.0
X90.0Y-132.5
X91.0Y-75.0
X91.0Y-83.0
X91.0Y-89.0
X91.0Y-94.0
X91.0Y-124.0
X92.0Y-61.0
X92.0Y-64.0
X92.0Y-67.0
X92.0Y-99.0
X92.5Y-132.5
X93.0Y-56.0
X93.0Y-128.0
X94.0Y-78.0
X94.0Y-88.0
X94.0Y-92.0
X94.0Y-122.0
X95.0Y-80.0
X95.0Y-82.0
X95.0Y-97.0
X95.0Y-132.5
X96.0Y-56.0
X96.0Y-130.0
X97.0Y-94.0
X97.5Y-132.5
X97.7Y-108.8
X98.0Y-61.0
X98.0Y-65.0
X98.0Y-69.0
X98.0Y-75.0
X98.0Y-89.0
X98.0Y-104.0
X99.0Y-56.0
X99.0Y-122.0
X99.0Y-127.0
X99.2Y-85.8
X99.3Y-83.1
X99.7Y-109.5
X100.0Y-60.0
X100.0Y-90.0
X100.0Y-97.0
X100.0Y-130.0
X100.0Y-132.5
X101.0Y-69.0
X102.0Y-56.0
X102.0Y-66.0
X102.0Y-80.0
X102.0Y-103.0
X102.0Y-114.0
X102.0Y-120.0
X102.5Y-132.5
X103.0Y-80.0
X103.0Y-87.0
X103.0Y-92.0
X104.0Y-69.0
X104.0Y-80.0
X104.0Y-96.0
X104.0Y-106.0
X104.0Y-114.0
X104.0Y-122.0
X105.0Y-56.0
X105.0Y-80.0
X105.0Y-89.0
X105.0Y-132.5
X106.0Y-65.0
X106.0Y-80.0
X106.0Y-82.0
X106.0Y-111.0
X107.0Y-61.0
X107.0Y-68.0
X107.0Y-80.0
X107.0Y-87.0
X107.0Y-103.0
X107.0Y-125.0
X107.0Y-128.0
X107.5Y-132.5
X108.0Y-56.0
X108.0Y-98.0
X108.0Y-107.0
X109.0Y-70.0
X109.0Y-82.0
X110.0Y-80.0
X110.0Y-87.0
X110.0Y-93.0
X110.0Y-116.0
X110.0Y-132.5
X111.0Y-56.0
X111.0Y-80.0
X112.0Y-80.0
X112.0Y-112.0
X112.0Y-118.0
X112.5Y-132.5
X113.0Y-61.0
X113.0Y-80.0
X113.0Y-104.0
X113.0Y-121.0
X113.0Y-124.0
X113.0Y-130.0
X114.0Y-56.0
X114.0Y-80.0
X114.0Y-97.0
X115.0Y-64.0
X115.0Y-70.0
X115.0Y-87.0
X115.0Y-92.0
X115.0Y-115.0
X115.0Y-132.5
X116.0Y-107.0
X117.0Y-56.0
X117.5Y-117.5
X117.5Y-120.0
X117.5Y-122.5
X117.5Y-125.0
X117.5Y-127.5
X117.5Y-130.0
X117.5Y-132.5
X117.7Y-83.0
X117.7Y-85.8
X118.0Y-62.0
X118.0Y-75.0
X119.0Y-66.0
X119.0Y-94.0
X119.0Y-113.0
X119.3Y-82.8
X120.0Y-56.0
X120.0Y-88.0
X120.0Y-104.0
X120.0Y-117.5
X120.8Y-79.4
X120.8Y-80.5
X120.8Y-81.5
X120.8Y-82.7
X122.0Y-60.0
X122.2Y-82.7
X122.3Y-75.1
X122.5Y-117.5
X123.0Y-56.0
X123.0Y-70.0
X123.0Y-91.0
X123.0Y-97.0
X123.0Y-107.0
X123.0Y-115.0
X123.9Y-83.0
X123.9Y-85.675
X124.0Y-64.0
X125.0Y-117.5
X126.0Y-56.0
X126.0Y-61.0
X126.0Y-70.0
X126.0Y-80.0
X126.1Y-82.7
X127.0Y-80.0
X127.0Y-89.0
X127.0Y-104.0
X127.0Y-112.0
X127.5Y-117.5
X128.0Y-80.0
X128.0Y-94.0
X129.0Y-56.0
X129.0Y-70.0
X129.0Y-80.0
X129.013Y-101.596
X129.1Y-100.6
X129.185Y-99.542
X129.2Y-107.6
X129.207Y-98.543
X129.9Y-82.5
X130.0Y-80.0
X130.0Y-117.5
X131.0Y-68.0
X131.0Y-70.0
X131.0Y-80.0
X131.977Y-105.0
X131.977Y-103.709
X132.0Y-56.0
X132.0Y-82.0
X132.0Y-115.0
X132.5Y-117.5
X133.0Y-61.0
X133.0Y-64.0
X133.0Y-80.0
X134.0Y-70.0
X134.0Y-80.0
X134.0Y-85.0
X134.0Y-89.0
X135.0Y-56.0
X135.0Y-80.0
X135.0Y-117.5
X135.4Y-106.3
X135.524Y-103.8
X135.569Y-104.848
X135.8Y-90.2
X135.812Y-93.126
X136.0Y-80.0
X137.0Y-67.0
X137.0Y-70.0
X137.0Y-80.0
X137.0Y-93.2
X137.0Y-96.0
X137.1Y-82.7
X137.1Y-90.2
X137.5Y-117.5
X138.0Y-56.0
X138.0Y-80.0
X138.1Y-116.5
X138.3Y-93.2
X138.4Y-90.2
X139.3Y-110.2
X140.0Y-66.0
X140.0Y-70.0
X140.0Y-117.5
X140.4Y-96.9
X140.8Y-102.8
X141.0Y-56.0
X141.0Y-60.0
X141.0Y-63.0
X141.0Y-89.0
X142.0Y-76.0
X142.3Y-82.6
X142.5Y-117.5
X143.0Y-75.0
X143.0Y-87.0
X143.0Y-94.0
X143.1Y-110.1
X143.6Y-81.6
X144.0Y-56.0
X144.6Y-78.5
X144.8Y-82.6
X145.0Y-119.0
X146.0Y-89.0
X147.0Y-56.0
X147.0Y-75.7
X148.0Y-61.0
X148.0Y-70.0
X148.0Y-86.0
X148.0Y-119.0
X148.6Y-92.0
X149.0Y-89.0
X149.0Y-119.0
X150.0Y-56.0
X150.0Y-64.0
X150.0Y-113.0
X150.0Y-119.0
X150.1Y-79.8
X151.0Y-71.0
X151.0Y-119.0
X151.2Y-114.9
X152.0Y-61.0
X152.0Y-71.0
X152.0Y-119.0
X152.2Y-85.8
X153.0Y-71.0
X153.0Y-89.1
X153.0Y-106.0
X153.0Y-119.0
X154.0Y-56.0
X154.0Y-71.0
X154.0Y-90.0
X154.0Y-119.0
X154.375Y-84.225
X154.8Y-87.8
X155.0Y-71.0
X155.0Y-106.0
X155.0Y-119.0
X155.4Y-94.8
X156.0Y-71.0
X156.0Y-119.0
X156.45Y-82.55
X156.8Y-83.6
X157.0Y-56.0
X157.0Y-106.0
X157.0Y-119.0
X157.1Y-79.7
X157.2Y-95.4
X158.0Y-68.0
X158.0Y-87.9
X158.0Y-119.0
X159.0Y-62.0
X159.0Y-66.0
X159.0Y-106.0
X159.0Y-119.0
X160.0Y-56.0
X160.0Y-71.0
X160.0Y-119.0
X160.7Y-85.4
X161.0Y-71.0
X161.0Y-113.0
X161.0Y-119.0
X161.8Y-83.9
X161.8Y-88.8
X161.8Y-91.5
X162.0Y-71.0
X162.0Y-119.0
X162.5Y-57.5
X162.7Y-88.2
X163.0Y-67.0
X163.0Y-71.0
X163.7Y-80.2
X163.7Y-83.9
X164.0Y-71.0
X164.0Y-96.0
X165.0Y-57.5
X165.0Y-65.0
X165.0Y-119.0
X165.039Y-99.675
X165.835Y-99.071
X165.883Y-101.124
X166.0Y-61.0
X166.0Y-113.0
X167.0Y-96.0
X167.2Y-84.8
X167.4Y-100.4
X167.5Y-57.5
X167.5Y-75.7
X167.8Y-86.3
X167.8Y-87.5
X168.0Y-119.0
X169.7Y-83.3
X170.0Y-57.5
X170.0Y-117.5
X171.0Y-76.0
X171.0Y-81.0
X171.0Y-85.0
X171.0Y-90.0
X171.0Y-94.0
X171.0Y-98.0
X171.0Y-103.0
X171.0Y-108.0
X171.0Y-113.0
X172.5Y-57.5
X172.5Y-117.5
X173.0Y-69.0
X174.0Y-64.0
X175.0Y-57.5
X175.0Y-117.5
X177.5Y-57.5
X177.5Y-60.0
X177.5Y-62.5
X177.5Y-65.0
X177.5Y-67.5
X177.5Y-70.0
X177.5Y-72.5
X177.5Y-75.0
X177.5Y-77.5
X177.5Y-80.0
X177.5Y-82.5
X177.5Y-85.0
X177.5Y-87.5
X177.5Y-90.0
X177.5Y-92.5
X177.5Y-95.0
X177.5Y-97.5
X177.5Y-100.0
X177.5Y-102.5
X177.5Y-105.0
X177.5Y-107.5
X177.5Y-110.0
X177.5Y-112.5
X177.5Y-115.0
X177.5Y-117.5
T2
X164.475Y-88.8
X164.475Y-90.4
X166.225Y-88.0
X166.225Y-89.6
X166.225Y-91.2
T3
X89.09Y-115.64
X89.1Y-110.56
T4
X71.46Y-111.525
X74.0Y-111.525
X76.54Y-111.525
T5
X69.78Y-126.922
X70.08Y-61.377
X77.4Y-126.922
X77.7Y-61.377
X85.02Y-126.922
X85.32Y-61.377
X94.78Y-61.477
X95.58Y-126.722
X102.4Y-61.477
X103.2Y-126.722
X110.02Y-61.477
X110.82Y-126.722
X129.46Y-61.5
X137.08Y-61.5
X144.7Y-61.5
X155.38Y-61.177
X163.0Y-61.177
X170.62Y-61.177
T6
X165.35Y-85.95
X165.35Y-93.25
T0
M30
