%TF.GenerationSoftware,KiCad,Pcbnew,(5.99.0-12255-gad1ee958b0)*%
%TF.CreationDate,2022-02-21T16:33:45+02:00*%
%TF.ProjectId,esp32-ledstrip-driver,65737033-322d-46c6-9564-73747269702d,rev?*%
%TF.SameCoordinates,Original*%
%TF.FileFunction,Soldermask,Top*%
%TF.FilePolarity,Negative*%
%FSLAX46Y46*%
G04 Gerber Fmt 4.6, Leading zero omitted, Abs format (unit mm)*
G04 Created by KiCad (PCBNEW (5.99.0-12255-gad1ee958b0)) date 2022-02-21 16:33:45*
%MOMM*%
%LPD*%
G01*
G04 APERTURE LIST*
G04 Aperture macros list*
%AMRoundRect*
0 Rectangle with rounded corners*
0 $1 Rounding radius*
0 $2 $3 $4 $5 $6 $7 $8 $9 X,Y pos of 4 corners*
0 Add a 4 corners polygon primitive as box body*
4,1,4,$2,$3,$4,$5,$6,$7,$8,$9,$2,$3,0*
0 Add four circle primitives for the rounded corners*
1,1,$1+$1,$2,$3*
1,1,$1+$1,$4,$5*
1,1,$1+$1,$6,$7*
1,1,$1+$1,$8,$9*
0 Add four rect primitives between the rounded corners*
20,1,$1+$1,$2,$3,$4,$5,0*
20,1,$1+$1,$4,$5,$6,$7,0*
20,1,$1+$1,$6,$7,$8,$9,0*
20,1,$1+$1,$8,$9,$2,$3,0*%
G04 Aperture macros list end*
%ADD10RoundRect,0.200000X-0.200000X-0.275000X0.200000X-0.275000X0.200000X0.275000X-0.200000X0.275000X0*%
%ADD11RoundRect,0.200000X-0.275000X0.200000X-0.275000X-0.200000X0.275000X-0.200000X0.275000X0.200000X0*%
%ADD12RoundRect,0.150000X0.150000X-0.587500X0.150000X0.587500X-0.150000X0.587500X-0.150000X-0.587500X0*%
%ADD13RoundRect,0.125000X-0.125000X0.825000X-0.125000X-0.825000X0.125000X-0.825000X0.125000X0.825000X0*%
%ADD14R,2.200000X1.200000*%
%ADD15R,6.400000X5.800000*%
%ADD16RoundRect,0.200000X0.275000X-0.200000X0.275000X0.200000X-0.275000X0.200000X-0.275000X-0.200000X0*%
%ADD17RoundRect,0.250000X-1.100000X0.325000X-1.100000X-0.325000X1.100000X-0.325000X1.100000X0.325000X0*%
%ADD18RoundRect,0.250001X0.799999X1.549999X-0.799999X1.549999X-0.799999X-1.549999X0.799999X-1.549999X0*%
%ADD19O,2.100000X3.600000*%
%ADD20RoundRect,0.200000X0.200000X0.275000X-0.200000X0.275000X-0.200000X-0.275000X0.200000X-0.275000X0*%
%ADD21RoundRect,0.225000X-0.250000X0.225000X-0.250000X-0.225000X0.250000X-0.225000X0.250000X0.225000X0*%
%ADD22RoundRect,0.237500X0.237500X-0.287500X0.237500X0.287500X-0.237500X0.287500X-0.237500X-0.287500X0*%
%ADD23RoundRect,0.250001X-0.799999X-1.549999X0.799999X-1.549999X0.799999X1.549999X-0.799999X1.549999X0*%
%ADD24R,2.000000X0.900000*%
%ADD25R,0.900000X2.000000*%
%ADD26R,5.000000X5.000000*%
%ADD27R,1.100000X1.100000*%
%ADD28C,1.100000*%
%ADD29C,2.400000*%
%ADD30RoundRect,0.250000X1.100000X-0.325000X1.100000X0.325000X-1.100000X0.325000X-1.100000X-0.325000X0*%
%ADD31RoundRect,0.225000X0.250000X-0.225000X0.250000X0.225000X-0.250000X0.225000X-0.250000X-0.225000X0*%
%ADD32RoundRect,0.250000X-0.325000X-0.450000X0.325000X-0.450000X0.325000X0.450000X-0.325000X0.450000X0*%
%ADD33R,2.100000X1.800000*%
%ADD34RoundRect,0.150000X0.587500X0.150000X-0.587500X0.150000X-0.587500X-0.150000X0.587500X-0.150000X0*%
%ADD35RoundRect,0.150000X-0.150000X0.587500X-0.150000X-0.587500X0.150000X-0.587500X0.150000X0.587500X0*%
%ADD36C,2.000000*%
%ADD37RoundRect,0.150000X-0.150000X0.725000X-0.150000X-0.725000X0.150000X-0.725000X0.150000X0.725000X0*%
%ADD38R,1.500000X2.400000*%
%ADD39RoundRect,0.237500X0.287500X0.237500X-0.287500X0.237500X-0.287500X-0.237500X0.287500X-0.237500X0*%
%ADD40R,1.800000X2.500000*%
G04 APERTURE END LIST*
D10*
%TO.C,R22*%
X153375000Y-95600000D03*
X155025000Y-95600000D03*
%TD*%
D11*
%TO.C,R13*%
X142300000Y-79975000D03*
X142300000Y-81625000D03*
%TD*%
D12*
%TO.C,D5*%
X146350000Y-97037500D03*
X148250000Y-97037500D03*
X147300000Y-95162500D03*
%TD*%
D11*
%TO.C,R12*%
X144800000Y-79975000D03*
X144800000Y-81625000D03*
%TD*%
D13*
%TO.C,U4*%
X158925000Y-85800000D03*
X158275000Y-85800000D03*
X157625000Y-85800000D03*
X156975000Y-85800000D03*
X156325000Y-85800000D03*
X155675000Y-85800000D03*
X155025000Y-85800000D03*
X154375000Y-85800000D03*
X153725000Y-85800000D03*
X153075000Y-85800000D03*
X153075000Y-92800000D03*
X153725000Y-92800000D03*
X154375000Y-92800000D03*
X155025000Y-92800000D03*
X155675000Y-92800000D03*
X156325000Y-92800000D03*
X156975000Y-92800000D03*
X157625000Y-92800000D03*
X158275000Y-92800000D03*
X158925000Y-92800000D03*
%TD*%
D14*
%TO.C,Q6*%
X122200000Y-72920000D03*
D15*
X128500000Y-75200000D03*
D14*
X122200000Y-77480000D03*
%TD*%
D10*
%TO.C,R26*%
X135975000Y-106300000D03*
X137625000Y-106300000D03*
%TD*%
D16*
%TO.C,R8*%
X124000000Y-81525000D03*
X124000000Y-79875000D03*
%TD*%
%TO.C,R6*%
X146500000Y-81625000D03*
X146500000Y-79975000D03*
%TD*%
D17*
%TO.C,C2*%
X74500000Y-105300000D03*
X74500000Y-108250000D03*
%TD*%
D14*
%TO.C,Q1*%
X91100000Y-77280000D03*
D15*
X84800000Y-75000000D03*
D14*
X91100000Y-72720000D03*
%TD*%
D16*
%TO.C,R3*%
X90300000Y-81025000D03*
X90300000Y-79375000D03*
%TD*%
D18*
%TO.C,P4*%
X144700000Y-61500000D03*
D19*
X137080000Y-61500000D03*
X129460000Y-61500000D03*
%TD*%
D16*
%TO.C,R10*%
X99100000Y-81125000D03*
X99100000Y-79475000D03*
%TD*%
D20*
%TO.C,R25*%
X149425000Y-93300000D03*
X147775000Y-93300000D03*
%TD*%
D10*
%TO.C,R19*%
X98050000Y-116975000D03*
X99700000Y-116975000D03*
%TD*%
D14*
%TO.C,Q7*%
X118600000Y-77380000D03*
D15*
X112300000Y-75100000D03*
D14*
X118600000Y-72820000D03*
%TD*%
D21*
%TO.C,C3*%
X166700000Y-116500000D03*
X166700000Y-118050000D03*
%TD*%
D18*
%TO.C,P3*%
X170620000Y-61177500D03*
D19*
X163000000Y-61177500D03*
X155380000Y-61177500D03*
%TD*%
D14*
%TO.C,Q8*%
X98100000Y-72820000D03*
D15*
X104400000Y-75100000D03*
D14*
X98100000Y-77380000D03*
%TD*%
D16*
%TO.C,R9*%
X117700000Y-81500000D03*
X117700000Y-79850000D03*
%TD*%
%TO.C,R7*%
X140600000Y-81625000D03*
X140600000Y-79975000D03*
%TD*%
D22*
%TO.C,D3*%
X151200000Y-93275000D03*
X151200000Y-91525000D03*
%TD*%
D23*
%TO.C,P6*%
X95580000Y-126722500D03*
D19*
X103200000Y-126722500D03*
X110820000Y-126722500D03*
%TD*%
D11*
%TO.C,R11*%
X168300000Y-80375000D03*
X168300000Y-82025000D03*
%TD*%
D24*
%TO.C,U1*%
X163500000Y-117805000D03*
X163500000Y-116535000D03*
X163500000Y-115265000D03*
X163500000Y-113995000D03*
X163500000Y-112725000D03*
X163500000Y-111455000D03*
X163500000Y-110185000D03*
X163500000Y-108915000D03*
X163500000Y-107645000D03*
X163500000Y-106375000D03*
X163500000Y-105105000D03*
X163500000Y-103835000D03*
X163500000Y-102565000D03*
X163500000Y-101295000D03*
D25*
X160715000Y-100295000D03*
X159445000Y-100295000D03*
X158175000Y-100295000D03*
X156905000Y-100295000D03*
X155635000Y-100295000D03*
X154365000Y-100295000D03*
X153095000Y-100295000D03*
X151825000Y-100295000D03*
X150555000Y-100295000D03*
X149285000Y-100295000D03*
D24*
X146500000Y-101295000D03*
X146500000Y-102565000D03*
X146500000Y-103835000D03*
X146500000Y-105105000D03*
X146500000Y-106375000D03*
X146500000Y-107645000D03*
X146500000Y-108915000D03*
X146500000Y-110185000D03*
X146500000Y-111455000D03*
X146500000Y-112725000D03*
X146500000Y-113995000D03*
X146500000Y-115265000D03*
X146500000Y-116535000D03*
X146500000Y-117805000D03*
D26*
X156000000Y-110305000D03*
%TD*%
D11*
%TO.C,R14*%
X122300000Y-79875000D03*
X122300000Y-81525000D03*
%TD*%
D14*
%TO.C,Q2*%
X70900000Y-72720000D03*
D15*
X77200000Y-75000000D03*
D14*
X70900000Y-77280000D03*
%TD*%
D22*
%TO.C,D2*%
X160400000Y-82575000D03*
X160400000Y-80825000D03*
%TD*%
D11*
%TO.C,R1*%
X92000000Y-79350000D03*
X92000000Y-81000000D03*
%TD*%
%TO.C,R18*%
X98100000Y-113750000D03*
X98100000Y-115400000D03*
%TD*%
D20*
%TO.C,R23*%
X155025000Y-97200000D03*
X153375000Y-97200000D03*
%TD*%
D27*
%TO.C,J1*%
X166225000Y-91200000D03*
D28*
X164475000Y-90400000D03*
X166225000Y-89600000D03*
X164475000Y-88800000D03*
X166225000Y-88000000D03*
D29*
X165350000Y-85950000D03*
X165350000Y-93250000D03*
%TD*%
D16*
%TO.C,R5*%
X166700000Y-82025000D03*
X166700000Y-80375000D03*
%TD*%
D14*
%TO.C,Q3*%
X167700000Y-77880000D03*
D15*
X161400000Y-75600000D03*
D14*
X167700000Y-73320000D03*
%TD*%
D30*
%TO.C,C1*%
X85600000Y-106950000D03*
X85600000Y-104000000D03*
%TD*%
D11*
%TO.C,R2*%
X71800000Y-80075000D03*
X71800000Y-81725000D03*
%TD*%
D31*
%TO.C,C4*%
X102500000Y-109550000D03*
X102500000Y-108000000D03*
%TD*%
D32*
%TO.C,D6*%
X139575000Y-106300000D03*
X141625000Y-106300000D03*
%TD*%
D33*
%TO.C,Y1*%
X155050000Y-80350000D03*
X152150000Y-80350000D03*
X152150000Y-82650000D03*
X155050000Y-82650000D03*
%TD*%
D14*
%TO.C,Q5*%
X142500000Y-77680000D03*
D15*
X136200000Y-75400000D03*
D14*
X142500000Y-73120000D03*
%TD*%
D34*
%TO.C,Q10*%
X151737500Y-97250000D03*
X151737500Y-95350000D03*
X149862500Y-96300000D03*
%TD*%
D11*
%TO.C,R17*%
X99700000Y-113750000D03*
X99700000Y-115400000D03*
%TD*%
D35*
%TO.C,Q9*%
X158250000Y-95162500D03*
X156350000Y-95162500D03*
X157300000Y-97037500D03*
%TD*%
D31*
%TO.C,C5*%
X157300000Y-82500000D03*
X157300000Y-80950000D03*
%TD*%
D36*
%TO.C,F1*%
X89090000Y-115640000D03*
X89100000Y-110560000D03*
%TD*%
D37*
%TO.C,U3*%
X100805000Y-106600000D03*
X99535000Y-106600000D03*
X98265000Y-106600000D03*
X96995000Y-106600000D03*
X96995000Y-111750000D03*
X98265000Y-111750000D03*
X99535000Y-111750000D03*
X100805000Y-111750000D03*
%TD*%
D38*
%TO.C,L1*%
X82750000Y-105775000D03*
X77250000Y-105775000D03*
%TD*%
D11*
%TO.C,R15*%
X119300000Y-79875000D03*
X119300000Y-81525000D03*
%TD*%
D18*
%TO.C,P2*%
X85320000Y-61377500D03*
D19*
X77700000Y-61377500D03*
X70080000Y-61377500D03*
%TD*%
D39*
%TO.C,D4*%
X161375000Y-97500000D03*
X159625000Y-97500000D03*
%TD*%
D16*
%TO.C,R21*%
X160800000Y-88625000D03*
X160800000Y-86975000D03*
%TD*%
D31*
%TO.C,C8*%
X161200000Y-95450000D03*
X161200000Y-93900000D03*
%TD*%
D16*
%TO.C,R4*%
X70100000Y-81725000D03*
X70100000Y-80075000D03*
%TD*%
D18*
%TO.C,P5*%
X110020000Y-61477500D03*
D19*
X102400000Y-61477500D03*
X94780000Y-61477500D03*
%TD*%
D36*
%TO.C,U2*%
X76540000Y-111525000D03*
X74000000Y-111525000D03*
X71460000Y-111525000D03*
%TD*%
D11*
%TO.C,R16*%
X97500000Y-79475000D03*
X97500000Y-81125000D03*
%TD*%
D21*
%TO.C,C6*%
X149700000Y-80825000D03*
X149700000Y-82375000D03*
%TD*%
D16*
%TO.C,R20*%
X158900000Y-82450000D03*
X158900000Y-80800000D03*
%TD*%
D14*
%TO.C,Q4*%
X147400000Y-73020000D03*
D15*
X153700000Y-75300000D03*
D14*
X147400000Y-77580000D03*
%TD*%
D40*
%TO.C,D1*%
X82000000Y-112575000D03*
X82000000Y-116575000D03*
%TD*%
D23*
%TO.C,P1*%
X69780000Y-126922500D03*
D19*
X77400000Y-126922500D03*
X85020000Y-126922500D03*
%TD*%
D21*
%TO.C,C7*%
X151000000Y-85025000D03*
X151000000Y-86575000D03*
%TD*%
D11*
%TO.C,R24*%
X162000000Y-80775000D03*
X162000000Y-82425000D03*
%TD*%
M02*
