%TF.GenerationSoftware,KiCad,Pcbnew,(5.99.0-12255-gad1ee958b0)*%
%TF.CreationDate,2022-02-21T16:33:45+02:00*%
%TF.ProjectId,esp32-ledstrip-driver,65737033-322d-46c6-9564-73747269702d,rev?*%
%TF.SameCoordinates,Original*%
%TF.FileFunction,Profile,NP*%
%FSLAX46Y46*%
G04 Gerber Fmt 4.6, Leading zero omitted, Abs format (unit mm)*
G04 Created by KiCad (PCBNEW (5.99.0-12255-gad1ee958b0)) date 2022-02-21 16:33:45*
%MOMM*%
%LPD*%
G01*
G04 APERTURE LIST*
%TA.AperFunction,Profile*%
%ADD10C,0.100000*%
%TD*%
G04 APERTURE END LIST*
D10*
X40000000Y-57500000D02*
X40000000Y-132500000D01*
X142500000Y-40000000D02*
G75*
G03*
X142500000Y-40000000I-2500000J0D01*
G01*
X50000000Y-105000000D02*
G75*
G03*
X50000000Y-105000000I-2500000J0D01*
G01*
X50000000Y-127500000D02*
G75*
G03*
X50000000Y-127500000I-2500000J0D01*
G01*
X82500000Y-40000000D02*
G75*
G03*
X82500000Y-40000000I-2500000J0D01*
G01*
X42500000Y-135000000D02*
G75*
G02*
X40000000Y-132500000I0J2500000D01*
G01*
X200000000Y-132500000D02*
G75*
G02*
X197500000Y-135000000I-2500000J0D01*
G01*
X120000000Y-40000000D02*
G75*
G03*
X120000000Y-40000000I-2500000J0D01*
G01*
X50000000Y-67500000D02*
G75*
G03*
X50000000Y-67500000I-2500000J0D01*
G01*
X50000000Y-112500000D02*
G75*
G03*
X50000000Y-112500000I-2500000J0D01*
G01*
X105000000Y-40000000D02*
G75*
G03*
X105000000Y-40000000I-2500000J0D01*
G01*
X165000000Y-40000000D02*
G75*
G03*
X165000000Y-40000000I-2500000J0D01*
G01*
X197500000Y-55000000D02*
X182500000Y-55000000D01*
X180000000Y-152500000D02*
X180000000Y-137500000D01*
X180000000Y-52500000D02*
X180000000Y-37500000D01*
X42500000Y-55000000D02*
X57500000Y-55000000D01*
X40000000Y-57500000D02*
G75*
G02*
X42500000Y-55000000I2500000J0D01*
G01*
X50000000Y-120000000D02*
G75*
G03*
X50000000Y-120000000I-2500000J0D01*
G01*
X181500000Y-60000000D02*
G75*
G03*
X181500000Y-60000000I-1500000J0D01*
G01*
X97500000Y-40000000D02*
G75*
G03*
X97500000Y-40000000I-2500000J0D01*
G01*
X105000000Y-150000000D02*
G75*
G03*
X105000000Y-150000000I-2500000J0D01*
G01*
X195000000Y-100000000D02*
G75*
G03*
X195000000Y-100000000I-2500000J0D01*
G01*
X97500000Y-150000000D02*
G75*
G03*
X97500000Y-150000000I-2500000J0D01*
G01*
X67500000Y-150000000D02*
G75*
G03*
X67500000Y-150000000I-2500000J0D01*
G01*
X177500000Y-35000000D02*
G75*
G02*
X180000000Y-37500000I0J-2500000D01*
G01*
X195000000Y-62500000D02*
G75*
G03*
X195000000Y-62500000I-2500000J0D01*
G01*
X200000000Y-57500000D02*
X200000000Y-132500000D01*
X182500000Y-135000000D02*
X197500000Y-135000000D01*
X50000000Y-90000000D02*
G75*
G03*
X50000000Y-90000000I-2500000J0D01*
G01*
X112500000Y-40000000D02*
G75*
G03*
X112500000Y-40000000I-2500000J0D01*
G01*
X195000000Y-70000000D02*
G75*
G03*
X195000000Y-70000000I-2500000J0D01*
G01*
X157500000Y-150000000D02*
G75*
G03*
X157500000Y-150000000I-2500000J0D01*
G01*
X120000000Y-150000000D02*
G75*
G03*
X120000000Y-150000000I-2500000J0D01*
G01*
X142500000Y-150000000D02*
G75*
G03*
X142500000Y-150000000I-2500000J0D01*
G01*
X56500000Y-95000000D02*
G75*
G03*
X56500000Y-95000000I-1500000J0D01*
G01*
X127500000Y-150000000D02*
G75*
G03*
X127500000Y-150000000I-2500000J0D01*
G01*
X121500000Y-137500000D02*
G75*
G03*
X121500000Y-137500000I-1500000J0D01*
G01*
X90000000Y-150000000D02*
G75*
G03*
X90000000Y-150000000I-2500000J0D01*
G01*
X150000000Y-150000000D02*
G75*
G03*
X150000000Y-150000000I-2500000J0D01*
G01*
X82500000Y-150000000D02*
G75*
G03*
X82500000Y-150000000I-2500000J0D01*
G01*
X195000000Y-77500000D02*
G75*
G03*
X195000000Y-77500000I-2500000J0D01*
G01*
X172500000Y-150000000D02*
G75*
G03*
X172500000Y-150000000I-2500000J0D01*
G01*
X62500000Y-155000000D02*
X177500000Y-155000000D01*
X50000000Y-60000000D02*
G75*
G03*
X50000000Y-60000000I-2500000J0D01*
G01*
X61500000Y-60000000D02*
G75*
G03*
X61500000Y-60000000I-1500000J0D01*
G01*
X60000000Y-52500000D02*
X60000000Y-37500000D01*
X182500000Y-135000000D02*
G75*
G03*
X180000000Y-137500000I0J-2500000D01*
G01*
X121500000Y-52500000D02*
G75*
G03*
X121500000Y-52500000I-1500000J0D01*
G01*
X135000000Y-40000000D02*
G75*
G03*
X135000000Y-40000000I-2500000J0D01*
G01*
X195000000Y-92500000D02*
G75*
G03*
X195000000Y-92500000I-2500000J0D01*
G01*
X57500000Y-135000000D02*
X42500000Y-135000000D01*
X195000000Y-130000000D02*
G75*
G03*
X195000000Y-130000000I-2500000J0D01*
G01*
X60000000Y-52500000D02*
G75*
G02*
X57500000Y-55000000I-2500000J0D01*
G01*
X112500000Y-150000000D02*
G75*
G03*
X112500000Y-150000000I-2500000J0D01*
G01*
X177500000Y-35000000D02*
X62500000Y-35000000D01*
X61500000Y-130000000D02*
G75*
G03*
X61500000Y-130000000I-1500000J0D01*
G01*
X62500000Y-35000000D02*
G75*
G03*
X60000000Y-37500000I0J-2500000D01*
G01*
X50000000Y-97500000D02*
G75*
G03*
X50000000Y-97500000I-2500000J0D01*
G01*
X195000000Y-115000000D02*
G75*
G03*
X195000000Y-115000000I-2500000J0D01*
G01*
X90000000Y-40000000D02*
G75*
G03*
X90000000Y-40000000I-2500000J0D01*
G01*
X50000000Y-82500000D02*
G75*
G03*
X50000000Y-82500000I-2500000J0D01*
G01*
X195000000Y-107500000D02*
G75*
G03*
X195000000Y-107500000I-2500000J0D01*
G01*
X195000000Y-85000000D02*
G75*
G03*
X195000000Y-85000000I-2500000J0D01*
G01*
X182500000Y-55000000D02*
G75*
G02*
X180000000Y-52500000I0J2500000D01*
G01*
X172500000Y-40000000D02*
G75*
G03*
X172500000Y-40000000I-2500000J0D01*
G01*
X197500000Y-55000000D02*
G75*
G02*
X200000000Y-57500000I0J-2500000D01*
G01*
X165000000Y-150000000D02*
G75*
G03*
X165000000Y-150000000I-2500000J0D01*
G01*
X50000000Y-75000000D02*
G75*
G03*
X50000000Y-75000000I-2500000J0D01*
G01*
X62500000Y-155000000D02*
G75*
G02*
X60000000Y-152500000I0J2500000D01*
G01*
X75000000Y-150000000D02*
G75*
G03*
X75000000Y-150000000I-2500000J0D01*
G01*
X127500000Y-40000000D02*
G75*
G03*
X127500000Y-40000000I-2500000J0D01*
G01*
X150000000Y-40000000D02*
G75*
G03*
X150000000Y-40000000I-2500000J0D01*
G01*
X181500000Y-130000000D02*
G75*
G03*
X181500000Y-130000000I-1500000J0D01*
G01*
X75000000Y-40000000D02*
G75*
G03*
X75000000Y-40000000I-2500000J0D01*
G01*
X180000000Y-152500000D02*
G75*
G02*
X177500000Y-155000000I-2500000J0D01*
G01*
X135000000Y-150000000D02*
G75*
G03*
X135000000Y-150000000I-2500000J0D01*
G01*
X67500000Y-40000000D02*
G75*
G03*
X67500000Y-40000000I-2500000J0D01*
G01*
X195000000Y-122500000D02*
G75*
G03*
X195000000Y-122500000I-2500000J0D01*
G01*
X157500000Y-40000000D02*
G75*
G03*
X157500000Y-40000000I-2500000J0D01*
G01*
X60000000Y-152500000D02*
X60000000Y-137500000D01*
X186500000Y-95000000D02*
G75*
G03*
X186500000Y-95000000I-1500000J0D01*
G01*
X60000000Y-137500000D02*
G75*
G03*
X57500000Y-135000000I-2500000J0D01*
G01*
M02*
